<svg id="_125971_logo_final_Image" data-name="125971_logo_final Image" xmlns="http://www.w3.org/2000/svg" width="2.08in" height="0.57in" viewBox="0 0 150 41.28"><defs><style>.cls-1{fill:#fff;}.cls-2{fill:#015797;}.cls-3{fill:#79adda;}.cls-4{fill:#b2c2de;}</style></defs><title>Artboard 1</title><rect class="cls-1" x="0.08" y="0.93" width="149.33" height="39.09" rx="11.9" ry="11.9"/><path class="cls-2" d="M137.61,1.72H12a11,11,0,0,0-11,11v9.69H148.58V12.7A11,11,0,0,0,137.61,1.72Z"/><path class="cls-3" d="M1,23.27v5.07a11,11,0,0,0,11,11H137.61a11,11,0,0,0,11-11V23.27Z"/><path class="cls-1" d="M11.26,14.93c.09,0,.13,0,.13.18a5.11,5.11,0,0,0,.84,2.52,3.43,3.43,0,0,0,2.92,1.59A2.7,2.7,0,0,0,18,16.63c0-2-.93-2.7-3.27-3.58a10.47,10.47,0,0,1-3.23-1.86A4.2,4.2,0,0,1,10.42,8,3.75,3.75,0,0,1,12,4.94,4.51,4.51,0,0,1,15.1,3.88a7,7,0,0,1,2.78.53.38.38,0,0,0,.46-.07l.29-.29a.4.4,0,0,1,.31-.13c.13,0,.18.13.18.35s.35,3.45.35,3.67a.15.15,0,0,1-.13.15L19,8.21a.17.17,0,0,1-.22-.13A6.36,6.36,0,0,0,17.4,5.74a2.9,2.9,0,0,0-2.3-.93A2.36,2.36,0,0,0,12.63,7a2.69,2.69,0,0,0,.62,2,7.4,7.4,0,0,0,2.7,1.37,7,7,0,0,1,3.18,1.72,4.24,4.24,0,0,1,1.1,3.16,4.61,4.61,0,0,1-4.68,4.91,5.77,5.77,0,0,1-3.76-1.06c-.27-.18-.4-.27-.53-.27s-.22.18-.35.4-.22.27-.4.27-.27-.13-.27-.35.35-3.84.4-4.11,0-.18.13-.18Z"/><path class="cls-1" d="M24,10.51a1,1,0,0,1,.44-.13c.13,0,.24.09.27.31L24.87,12H25a4.22,4.22,0,0,1,3.18-1.59A2.76,2.76,0,0,1,30.75,12h.13A4,4,0,0,1,34,10.38a2.4,2.4,0,0,1,2,.75c.6.62,1,.93,1,2.85V16.5c0,.62,0,1.68,0,1.94,0,.49.27.66.57.66h.57c.13,0,.18,0,.18.15v.46c0,.13,0,.2-.18.2s-.75-.07-2.12-.07-2,.07-2.17.07-.18-.07-.18-.18v-.46c0-.13,0-.18.18-.18h.35a.42.42,0,0,0,.44-.44c0-.49.09-1.28.09-1.94V14.13c0-1.06-.09-1.63-.49-2a1.7,1.7,0,0,0-1.33-.49,2.17,2.17,0,0,0-1.57.91A3,3,0,0,0,31,14.29V18.4c0,.49.13.71.4.71H32c.18,0,.22,0,.22.15v.49c0,.11,0,.18-.13.18s-.75-.07-2.17-.07-2.1.07-2.23.07-.15-.07-.15-.18v-.42c0-.18,0-.22.18-.22h.49c.31,0,.53-.22.53-1V14.31c0-1.59-.27-2.08-.57-2.34a2,2,0,0,0-1.19-.31,1.93,1.93,0,0,0-1.59.93A2.55,2.55,0,0,0,25,14.16v3.93c0,.8.18,1,.44,1h.49c.18,0,.22,0,.22.13v.51c0,.11,0,.18-.18.18s-.8-.07-2.21-.07-2,.07-2.21.07-.18,0-.18-.2v-.46c0-.11.09-.15.27-.15h.66c.22,0,.35-.18.4-.57V14A1.37,1.37,0,0,0,22,12.54l-.46-.24c-.11-.07-.15-.11-.15-.2v-.22c0-.09.07-.13.15-.18Z"/><path class="cls-1" d="M40.25,13.56c0-.66-.13-1.1-1.15-1.37-.2,0-.22-.11-.22-.2v-.24c0-.09,0-.13.15-.18.31-.13,2.5-.91,2.87-1.06a1.53,1.53,0,0,1,.53-.13c.13,0,.2.09.18.27,0,.35,0,1.77,0,3.6v2.39c0,.84,0,1.64,0,1.9s.13.57.35.57h.88c.18,0,.22,0,.22.15v.44c0,.13,0,.22-.18.22s-1.19-.07-2.67-.07c-1.28,0-2.12.07-2.39.07-.11,0-.18,0-.18-.22v-.42c0-.13.09-.18.22-.18h1c.22,0,.33-.09.35-.44,0-.66,0-1.37,0-2Zm.39-6.47a1.23,1.23,0,0,1-1.25-1.17,1.32,1.32,0,0,1,1.37-1.21A1.17,1.17,0,0,1,42,5.84,1.24,1.24,0,0,1,40.64,7.09Z"/><path class="cls-1" d="M44.49,11.86a.28.28,0,0,1-.31-.31c0-.18.13-.31.42-.42a9.31,9.31,0,0,0,3-2.78A.36.36,0,0,1,48,8.12c.18,0,.27.13.27.31l-.09,2.19h2.92c.13,0,.18.09.15.18l-.22.93c0,.09-.09.13-.22.13H48.12c0,.93-.07,2-.07,3v2c0,1.72.73,2.08,1.17,2.08a3.06,3.06,0,0,0,1.28-.27c.15-.07.22-.07.26,0l.13.26a.27.27,0,0,1-.09.31,4.59,4.59,0,0,1-2.78.88,2.27,2.27,0,0,1-2.32-2c0-.8.07-2.56.07-3.4V11.86Z"/><path class="cls-1" d="M59.21,15c0-1.15,0-2.39-.57-3a1.6,1.6,0,0,0-1.24-.53,2.4,2.4,0,0,0-1.64.8,1.92,1.92,0,0,0-.4,1.08v4.77c0,.71.09.93.4.93h.53c.13,0,.22,0,.22.2v.4c0,.13,0,.22-.18.22s-1.15-.07-2.3-.07c-1.37,0-2.21.07-2.39.07s-.18,0-.18-.18v-.49c0-.11.09-.15.2-.15h.55c.35,0,.66-.09.73-.35A21.84,21.84,0,0,0,53.07,16l0-7.89c0-1.24-.27-1.68-1-2L51.61,6c-.13,0-.18-.09-.18-.18V5.61c0-.09,0-.13.31-.27a23,23,0,0,0,2.87-1.28,1.9,1.9,0,0,1,.62-.18c.18,0,.22.18.18.53s0,4.86,0,5.94v1.37h.13a3.64,3.64,0,0,1,2.85-1.35,3,3,0,0,1,2.21.88c1,.88,1,2,1,3.25v4.24c0,.31.4.35.75.35h.4c.18,0,.22,0,.22.15v.49c0,.11,0,.18-.18.18s-.84-.07-2.19-.07-2.12.07-2.34.07-.18,0-.18-.15v-.53c0-.09,0-.13.15-.13h.38c.27,0,.57-.09.62-.44s0-1.46,0-2.17Z"/><path class="cls-1" d="M83.74,13.78c-.18.51-1.26,3.67-1.37,4.26a1.87,1.87,0,0,0,0,.46c0,.29.35.53.8.53H84c.18,0,.22,0,.22.11v.55c0,.13,0,.22-.18.22-.31,0-1.24-.07-2.78-.07s-2.12.07-2.43.07c-.13,0-.13-.13-.13-.29v-.42c0-.13,0-.18.13-.18h.66c.62,0,1-.31,1.41-1,.22-.4,1.81-4.37,2.47-6.23L85.6,6c0-.22.18-.62,0-.75A.5.5,0,0,1,85.51,5c0-.09,0-.18.22-.22a7.16,7.16,0,0,0,2.19-1.1c.13-.13.22-.22.33-.22s.22.26.26.4c.4,1.37,2.12,6.32,2.52,7.73.53,1.72,1.95,5.83,2.25,6.43a1.67,1.67,0,0,0,1.41,1h.71c.13,0,.18,0,.18.15v.46c0,.13,0,.27-.22.27-.4,0-.84-.07-3.27-.07-1.86,0-2.61.07-3.09.07-.18,0-.22-.13-.22-.27v-.44c0-.13,0-.18.18-.18h.57c.62,0,.79-.22.66-.82-.18-.79-1.06-3.62-1.33-4.44Zm4.91-.88c-.22-.64-1.72-5.68-1.86-6.12-.09-.27-.13-.4-.22-.4s-.22.09-.29.29S84.2,12.39,84,12.9Z"/><path class="cls-1" d="M103.89,16.23a5,5,0,0,0,.22,1.94,1.47,1.47,0,0,0,.93.4c.31,0,.4,0,.44.13l0,.27a.19.19,0,0,1-.13.27l-3,.84c-.13,0-.27,0-.31-.22l-.31-1a4.75,4.75,0,0,1-3.09,1.28A3.66,3.66,0,0,1,96.07,19a4.13,4.13,0,0,1-1.37-3.25,5.43,5.43,0,0,1,1.55-4,4.31,4.31,0,0,1,3.27-1.41,6.65,6.65,0,0,1,2.08.31l-.07-4.29c0-.75-.2-1.06-1.39-1.28-.13,0-.18-.09-.18-.18v-.4c0-.09,0-.13.18-.18,1.1-.13,2.56-.27,3.14-.4a3.69,3.69,0,0,1,.57-.09c.09,0,.18.13.13.4-.09,1.1-.09,4.29-.09,7.14Zm-2.3-2.89a2.18,2.18,0,0,0-.22-1.06,2.21,2.21,0,0,0-1.94-1,1.83,1.83,0,0,0-1.52.66A4,4,0,0,0,97,14.55c0,2.52,1.35,4.33,2.72,4.33a2,2,0,0,0,1.68-.8,1.86,1.86,0,0,0,.18-.88Z"/><path class="cls-1" d="M111.08,18.77A4.28,4.28,0,0,1,109.15,20a4.62,4.62,0,0,1-1.41.15c-.82,0-1.53-.66-1.53-1.9a2.85,2.85,0,0,1,2-2.72,23.2,23.2,0,0,0,2.7-1.37V13a2.15,2.15,0,0,0-.35-1.24,1.47,1.47,0,0,0-1.1-.33,2.3,2.3,0,0,0-1.28.4c-.31.22-.09.55-.09,1.08a1.16,1.16,0,0,1-1.33,1.28.72.72,0,0,1-.75-.75,2.35,2.35,0,0,1,1-1.81,5.82,5.82,0,0,1,3.58-1.24,2.55,2.55,0,0,1,2,.62,2.07,2.07,0,0,1,.53,1.66l0,3.49V17.2c0,1.19.18,1.55.58,1.55a.85.85,0,0,0,.71-.35c.09-.13.13-.13.22-.09l.26.18c.09,0,.13.13,0,.35a2.22,2.22,0,0,1-2,1.28,1.82,1.82,0,0,1-1.86-1.35ZM110.94,15c-1,.62-2.43,1-2.43,2.61,0,.91.49,1.35,1,1.35s1.41-.66,1.41-1.06Z"/><path class="cls-1" d="M117.93,10.51a1,1,0,0,1,.44-.13c.13,0,.24.09.26.31l.13,1.28h.09A4.21,4.21,0,0,1,122,10.38,2.76,2.76,0,0,1,124.64,12h.13a4,4,0,0,1,3.09-1.63,2.4,2.4,0,0,1,2,.75c.6.62,1,.93,1,2.85V16.5c0,.62,0,1.68,0,1.94,0,.49.26.66.57.66H132c.13,0,.18,0,.18.15v.46c0,.13,0,.2-.18.2s-.75-.07-2.12-.07-2,.07-2.17.07-.18-.07-.18-.18v-.46c0-.13,0-.18.18-.18h.35a.42.42,0,0,0,.44-.44c0-.49.09-1.28.09-1.94V14.13c0-1.06-.09-1.63-.49-2a1.7,1.7,0,0,0-1.33-.49,2.17,2.17,0,0,0-1.57.91,3,3,0,0,0-.33,1.72V18.4c0,.49.13.71.4.71h.57c.18,0,.22,0,.22.15v.49c0,.11,0,.18-.13.18s-.75-.07-2.17-.07-2.1.07-2.23.07-.15-.07-.15-.18v-.42c0-.18,0-.22.18-.22h.49c.31,0,.53-.22.53-1V14.31c0-1.59-.27-2.08-.57-2.34a2,2,0,0,0-1.19-.31,1.93,1.93,0,0,0-1.59.93,2.55,2.55,0,0,0-.35,1.57v3.93c0,.8.18,1,.44,1h.49c.18,0,.22,0,.22.13v.51c0,.11,0,.18-.18.18s-.79-.07-2.21-.07-2,.07-2.21.07-.18,0-.18-.2v-.46c0-.11.09-.15.27-.15h.66c.22,0,.35-.18.4-.57V14a1.37,1.37,0,0,0-.66-1.41l-.46-.24c-.11-.07-.15-.11-.15-.2v-.22c0-.09.07-.13.15-.18Z"/><path class="cls-1" d="M133,17.07c0-.09,0-.15.07-.18l.42-.13c.09,0,.15,0,.2.07l.73,1.24a2,2,0,0,0,1.9,1.19,1.43,1.43,0,0,0,1.57-1.35c0-.88-.57-1.28-2.12-1.72s-2.7-1.19-2.7-2.76a2.69,2.69,0,0,1,1.13-2.32,3.65,3.65,0,0,1,2.3-.73,4.27,4.27,0,0,1,2.14.49c.33.18.4.27.42.4l.29,1.5a.3.3,0,0,1,0,.24l-.42.2a.14.14,0,0,1-.18-.09l-1.06-1.19a1.79,1.79,0,0,0-1.39-.68,1.37,1.37,0,0,0-1.52,1.26c0,.91.66,1.17,2,1.52A4.07,4.07,0,0,1,139,15.17a2.27,2.27,0,0,1,.66,1.77c0,1.86-1.5,3.18-3.69,3.18a4.65,4.65,0,0,1-2.39-.57.58.58,0,0,1-.18-.24Z"/><path class="cls-1" d="M11,30.24c0-1.62,0-1.92,0-2.25s-.09-.53-.44-.58l-.37,0a.1.1,0,0,1-.09-.09c0-.06,0-.09.17-.09l1.23,0c.21,0,2.56,0,2.8,0a2.19,2.19,0,0,0,.49,0c.06,0,.11-.06.15-.06s.07,0,.07.1,0,.2-.09.49c0,.1,0,.56,0,.69s0,.11-.1.11-.09,0-.09-.12a1.15,1.15,0,0,0-.1-.39.81.81,0,0,0-.74-.31l-1.77,0c-.06,0-.09,0-.09.11v2.85c0,.06,0,.1.07.1h2c.26,0,.41-.06.5-.18s.1-.11.14-.11.06,0,.06.09a4.32,4.32,0,0,0-.1.58c0,.21,0,.63,0,.7s0,.21-.1.21-.07,0-.07-.1a1.51,1.51,0,0,0-.07-.38c0-.15-.22-.28-.55-.33s-1.55,0-1.73,0-.07,0-.07.1v.83c0,1,0,1.85,0,2.26s.1.5.39.55l.49,0A.08.08,0,0,1,13,35s0,.09-.17.09c-.6,0-1.3,0-1.35,0s-.74,0-1.07,0c-.11,0-.17,0-.17-.09a.08.08,0,0,1,.09-.09,3,3,0,0,0,.33,0c.21,0,.23-.25.28-.55A21.27,21.27,0,0,0,11,32.09Z"/><path class="cls-1" d="M19.87,27.43c.14-.34.18-.41.26-.41s.15.15.26.38c.2.44,1.93,4.75,2.59,6.34.39.93.69,1.07.92,1.14a1.51,1.51,0,0,0,.43.06c.06,0,.14,0,.14.09s-.12.09-.25.09-1,0-1.71,0c-.21,0-.38,0-.38-.07s0,0,.07-.07a.2.2,0,0,0,.1-.28l-1-2.39s0-.06-.1-.06H18.74a.11.11,0,0,0-.11.09L18,34a2.16,2.16,0,0,0-.16.7c0,.21.18.28.37.28h.1c.09,0,.11,0,.11.09s-.06.09-.16.09l-1,0c-.11,0-.65,0-1.09,0-.14,0-.21,0-.21-.09a.09.09,0,0,1,.1-.09l.32,0c.49-.06.7-.43.91-1Zm1.2,4.35s0,0,0-.07L20,28.84q-.09-.24-.18,0l-1,2.86s0,.07,0,.07Z"/><path class="cls-1" d="M35.25,33.78c0,.37.11.93.55,1.08a2.29,2.29,0,0,0,.7.1s.09,0,.09.07-.1.1-.22.1-1.45,0-1.84,0-.31-.06-.31-.11a.09.09,0,0,1,.07-.09c.06,0,.07-.17,0-.37l-.52-5.31h0l-2.6,5.33c-.22.45-.28.55-.38.55s-.16-.1-.37-.48-1-1.85-1.27-2.42S28,29.78,27.81,29.35h0l-.42,4.72c0,.16,0,.36,0,.53a.29.29,0,0,0,.26.29,1.77,1.77,0,0,0,.42.06s.09,0,.09.07-.07.1-.2.1c-.41,0-.92,0-1,0s-.61,0-.91,0c-.11,0-.18,0-.18-.1s0-.07.11-.07l.32,0c.36-.06.37-.44.42-.83l.79-6.82c0-.11.06-.18.12-.18a.25.25,0,0,1,.22.16L31,33.72l3.14-6.47c0-.1.1-.17.17-.17s.13.09.16.28Z"/><path class="cls-1" d="M40.47,32.09c0,1,0,1.83,0,2.26s.07.5.39.55l.49,0a.08.08,0,0,1,.09.09s0,.09-.17.09c-.6,0-1.3,0-1.35,0s-.74,0-1.07,0c-.11,0-.17,0-.17-.09a.08.08,0,0,1,.09-.09,1.56,1.56,0,0,0,.33,0c.21,0,.25-.25.28-.55s.06-1.25.06-2.26V30.24c0-1.62,0-1.92,0-2.25s-.11-.52-.34-.56a2,2,0,0,0-.33,0,.09.09,0,0,1-.09-.09c0-.06,0-.09.17-.09l1.09,0,1.08,0c.12,0,.17,0,.17.09a.1.1,0,0,1-.09.09,1.21,1.21,0,0,0-.27,0c-.29.06-.36.21-.38.58s0,.63,0,2.25Z"/><path class="cls-1" d="M46,32.11c0,1.54,0,2.16.22,2.35s.59.25,1.44.25c.56,0,1,0,1.3-.32a1.28,1.28,0,0,0,.26-.59c0-.07,0-.13.11-.13s.07,0,.07.16a6.6,6.6,0,0,1-.16,1c-.07.25-.11.28-.69.28-.77,0-1.38,0-1.88,0l-1.18,0H45l-.63,0c-.11,0-.17,0-.17-.09a.08.08,0,0,1,.09-.09,1.56,1.56,0,0,0,.33,0c.21,0,.23-.25.28-.55A21.27,21.27,0,0,0,45,32.09V30.24c0-1.62,0-1.92,0-2.25s-.09-.53-.44-.58l-.37,0a.1.1,0,0,1-.09-.09c0-.06,0-.09.17-.09l1.23,0,1.19,0c.11,0,.17,0,.17.09s0,.07-.09.07l-.36,0c-.32.06-.38.22-.41.59s0,.63,0,2.25Z"/><path class="cls-1" d="M53.38,32.4a1.86,1.86,0,0,0-.23-1.07c-.09-.16-1.55-2.48-1.92-3a2.7,2.7,0,0,0-.71-.76,1.06,1.06,0,0,0-.45-.15.11.11,0,0,1-.11-.1s0-.07.14-.07l1.07,0c.07,0,.52,0,.93,0,.12,0,.15,0,.15.07s-.07.07-.17.11a.18.18,0,0,0-.14.17.86.86,0,0,0,.15.41l2,3.25c.22-.44,1.57-2.68,1.77-3a1.11,1.11,0,0,0,.18-.54c0-.15,0-.23-.17-.27s-.16-.07-.16-.12.06-.06.17-.06l.75,0,1.06,0c.07,0,.14,0,.14.06a.13.13,0,0,1-.14.11,1.11,1.11,0,0,0-.5.13,1.87,1.87,0,0,0-.54.52c-.36.42-1.88,2.87-2.1,3.32a2.09,2.09,0,0,0-.14,1v.9c0,.17,0,.61,0,1s.1.5.42.55l.49,0a.08.08,0,0,1,.09.09s-.06.09-.17.09c-.6,0-1.3,0-1.36,0s-.74,0-1.06,0c-.12,0-.17,0-.17-.09a.08.08,0,0,1,.09-.09,1.44,1.44,0,0,0,.32,0c.22,0,.29-.25.32-.55s0-.87,0-1Z"/><path class="cls-1" d="M65.19,30.24c0-1.62,0-1.92,0-2.25s-.09-.53-.44-.58l-.37,0a.1.1,0,0,1-.09-.09c0-.06,0-.09.17-.09l1.25,0c.12,0,.81,0,1.45,0,1.08,0,3.06-.1,4.34,1.19a3.67,3.67,0,0,1,1.06,2.65A4.18,4.18,0,0,1,71.37,34a4.34,4.34,0,0,1-3.28,1.2c-.47,0-1,0-1.51-.06l-.88-.06h-.44l-.65,0c-.11,0-.17,0-.17-.09a.08.08,0,0,1,.09-.09,1.56,1.56,0,0,0,.33,0c.21,0,.23-.25.28-.55a21.27,21.27,0,0,0,.06-2.26Zm1,1.13c0,1.11,0,2.08,0,2.27a2,2,0,0,0,.12.75c.14.2.52.42,1.79.42a3.62,3.62,0,0,0,2.53-.95,3.51,3.51,0,0,0,.85-2.48,3.62,3.62,0,0,0-1-2.62A4.46,4.46,0,0,0,67,27.6a2.93,2.93,0,0,0-.65.07.18.18,0,0,0-.13.21Z"/><path class="cls-1" d="M76,30.24c0-1.62,0-1.92,0-2.25s-.09-.53-.44-.58l-.37,0a.1.1,0,0,1-.09-.09c0-.06,0-.09.17-.09l1.25,0c.07,0,2.33,0,2.58,0a4.86,4.86,0,0,0,.49-.06s.1,0,.15,0,0,0,0,.1-.06.2-.09.49c0,.1,0,.56-.06.69s0,.11-.1.11-.09,0-.09-.13a1.14,1.14,0,0,0-.06-.37c-.07-.17-.18-.25-.77-.32-.18,0-1.44,0-1.56,0s-.06,0-.06.11v2.84c0,.07,0,.11.06.11s1.56,0,1.81,0,.42,0,.53-.15.12-.14.16-.14.06,0,.06.09a5.65,5.65,0,0,0-.09.58c0,.21,0,.6,0,.67s0,.2-.1.2-.07,0-.07-.1a.91.91,0,0,0,0-.34c0-.15-.13-.27-.55-.32s-1.45,0-1.63,0a.06.06,0,0,0-.07.07v.87c0,.36,0,1.57,0,1.78,0,.7.22.83,1.29.83a3.6,3.6,0,0,0,1.08-.11.79.79,0,0,0,.49-.72c0-.12,0-.16.11-.16s.07.09.07.16a8.63,8.63,0,0,1-.15,1c-.07.27-.18.27-.6.27-.81,0-1.44,0-1.88,0s-.74,0-.9,0H76l-.63,0c-.11,0-.17,0-.17-.09a.08.08,0,0,1,.09-.09,3,3,0,0,0,.33,0c.21,0,.23-.25.28-.55A21.27,21.27,0,0,0,76,32.09Z"/><path class="cls-1" d="M84.2,33.69c0,.86.12,1.12.42,1.19a2.58,2.58,0,0,0,.54.06.08.08,0,0,1,.09.09c0,.06-.07.09-.2.09-.61,0-1,0-1.14,0s-.55,0-1,0c-.11,0-.17,0-.17-.09a.08.08,0,0,1,.09-.09,1.72,1.72,0,0,0,.44-.06c.27-.07.31-.36.31-1.3v-6c0-.42.06-.53.15-.53s.31.21.42.32,1.74,1.84,3.42,3.56c1.07,1.11,2.22,2.35,2.55,2.69L90,28.41c0-.68-.07-.91-.41-1a3.54,3.54,0,0,0-.53,0c-.07,0-.09-.06-.09-.1s.09-.07.21-.07c.49,0,1,0,1.13,0s.48,0,.92,0c.11,0,.2,0,.2.07a.12.12,0,0,1-.12.1,1.23,1.23,0,0,0-.26,0c-.36.07-.38.28-.38.91l0,6.12c0,.69,0,.75-.09.75s-.22-.09-.82-.64c-.11-.1-1.67-1.63-2.81-2.83s-2.47-2.59-2.8-3Z"/><path class="cls-1" d="M97.32,32.09c0,1,0,1.83,0,2.26s.09.5.42.55a4.17,4.17,0,0,0,.49,0,.08.08,0,0,1,.09.09s0,.09-.17.09c-.59,0-1.28,0-1.34,0s-.8,0-1.12,0c-.12,0-.17,0-.17-.09s0-.07.09-.07a1.45,1.45,0,0,0,.32,0c.22,0,.28-.26.32-.57s0-1.25,0-2.26V27.7l-1.56,0c-.68,0-.93.09-1.09.33a1.75,1.75,0,0,0-.17.33c0,.09-.06.1-.11.1a.08.08,0,0,1-.07-.09c0-.11.21-1,.23-1.13s.07-.2.11-.2a3.79,3.79,0,0,0,.48.12c.31,0,.73,0,.85,0h4.08a5.41,5.41,0,0,0,.77,0l.31,0s0,.06,0,.12c0,.32,0,1.07,0,1.19s0,.14-.1.14-.07,0-.09-.18V28.3c0-.32-.27-.55-1.3-.58l-1.35,0Z"/><path class="cls-1" d="M104.42,32.09c0,1,0,1.83,0,2.26s.07.5.39.55a4.43,4.43,0,0,0,.49,0,.08.08,0,0,1,.09.09s0,.09-.17.09c-.6,0-1.3,0-1.35,0s-.74,0-1.07,0c-.11,0-.17,0-.17-.09a.08.08,0,0,1,.09-.09,1.55,1.55,0,0,0,.33,0c.21,0,.25-.25.28-.55s.06-1.25.06-2.26V30.24c0-1.62,0-1.92,0-2.25s-.11-.52-.34-.56a2,2,0,0,0-.33,0,.09.09,0,0,1-.09-.09c0-.06,0-.09.17-.09l1.09,0,1.08,0c.12,0,.17,0,.17.09a.1.1,0,0,1-.09.09,1.22,1.22,0,0,0-.27,0c-.29.06-.36.21-.38.58s0,.63,0,2.25Z"/><path class="cls-1" d="M108.29,35c-.15-.07-.16-.11-.16-.39,0-.52,0-.93.06-1.11s0-.17.09-.17.1,0,.1.12a1.56,1.56,0,0,0,0,.38,1.59,1.59,0,0,0,1.71,1c1.07,0,1.62-.6,1.62-1.39s-.41-1.11-1.36-1.82l-.49-.37c-1.17-.87-1.55-1.51-1.55-2.24,0-1.23,1-2,2.4-2a5.22,5.22,0,0,1,1.12.12,1.39,1.39,0,0,0,.38,0c.09,0,.11,0,.11.07a10.93,10.93,0,0,0,0,1.11c0,.16,0,.23-.09.23s-.09,0-.1-.13A2,2,0,0,0,112,28c-.07-.12-.43-.52-1.4-.52-.79,0-1.44.39-1.44,1.13s.33,1,1.4,1.77l.31.21c1.31.9,1.77,1.62,1.77,2.52a2,2,0,0,1-1,1.78,3.31,3.31,0,0,1-1.72.37A4,4,0,0,1,108.29,35Z"/><path class="cls-1" d="M119,32.09c0,1,0,1.83,0,2.26s.09.5.42.55a4.17,4.17,0,0,0,.49,0A.08.08,0,0,1,120,35s0,.09-.17.09c-.59,0-1.28,0-1.34,0s-.8,0-1.12,0c-.12,0-.17,0-.17-.09s0-.07.09-.07a1.45,1.45,0,0,0,.32,0c.22,0,.28-.26.32-.57s0-1.25,0-2.26V27.7l-1.56,0c-.68,0-.93.09-1.09.33a1.75,1.75,0,0,0-.17.33c0,.09-.06.1-.11.1a.08.08,0,0,1-.07-.09c0-.11.21-1,.23-1.13s.07-.2.11-.2a3.79,3.79,0,0,0,.48.12c.31,0,.73,0,.85,0h4.08a5.41,5.41,0,0,0,.77,0l.31,0s0,.06,0,.12c0,.32,0,1.07,0,1.19s0,.14-.1.14-.07,0-.09-.18V28.3c0-.32-.27-.55-1.3-.58l-1.35,0Z"/><path class="cls-1" d="M125.1,30.24c0-1.62,0-1.92,0-2.25s-.09-.53-.44-.58l-.37,0a.1.1,0,0,1-.09-.09c0-.06,0-.09.17-.09l1.28,0,1.35,0a3.55,3.55,0,0,1,2,.45,1.83,1.83,0,0,1,.75,1.42,3.05,3.05,0,0,1-1.33,2.38c.88,1.11,1.63,2.05,2.26,2.7a2,2,0,0,0,1.58.76.09.09,0,0,1,.1.09c0,.06-.06.09-.26.09h-.68a2.18,2.18,0,0,1-1.15-.21,5.52,5.52,0,0,1-1.47-1.54c-.46-.57-.93-1.24-1.17-1.52a.17.17,0,0,0-.15-.06l-1.38,0s-.07,0-.07.09v.25c0,1,0,1.82,0,2.25s.1.5.43.55a4,4,0,0,0,.48,0,.08.08,0,0,1,.09.09s0,.09-.17.09c-.59,0-1.28,0-1.33,0s-.74,0-1.07,0c-.11,0-.17,0-.17-.09a.08.08,0,0,1,.09-.09,1.55,1.55,0,0,0,.33,0c.21,0,.23-.25.28-.55a21.27,21.27,0,0,0,.06-2.26Zm.93.88a.15.15,0,0,0,.07.13,3.67,3.67,0,0,0,1.19.16,1.4,1.4,0,0,0,.81-.18,1.86,1.86,0,0,0,.65-1.6,1.8,1.8,0,0,0-1.87-2.05,4.72,4.72,0,0,0-.77.06.13.13,0,0,0-.09.12Z"/><path class="cls-1" d="M135.34,32.4a1.86,1.86,0,0,0-.23-1.07c-.09-.16-1.55-2.48-1.92-3a2.7,2.7,0,0,0-.71-.76,1.06,1.06,0,0,0-.46-.15.11.11,0,0,1-.11-.1s0-.07.13-.07l1.07,0c.07,0,.52,0,.93,0,.12,0,.15,0,.15.07s-.07.07-.17.11a.18.18,0,0,0-.14.17A.86.86,0,0,0,134,28l2,3.25c.22-.44,1.57-2.68,1.77-3a1.12,1.12,0,0,0,.18-.54c0-.15,0-.23-.17-.27s-.16-.07-.16-.12.06-.06.17-.06l.75,0,1.06,0c.07,0,.13,0,.13.06a.13.13,0,0,1-.13.11,1.11,1.11,0,0,0-.5.13,1.88,1.88,0,0,0-.54.52c-.36.42-1.88,2.87-2.1,3.32a2.08,2.08,0,0,0-.13,1v.9c0,.17,0,.61,0,1s.1.5.42.55l.49,0a.08.08,0,0,1,.09.09s-.06.09-.17.09c-.6,0-1.3,0-1.36,0s-.74,0-1.06,0c-.12,0-.17,0-.17-.09a.08.08,0,0,1,.09-.09,1.44,1.44,0,0,0,.32,0c.22,0,.29-.25.32-.55s0-.87,0-1Z"/><path class="cls-4" d="M69.41,7.64c.69-.25,1.72-.66,1-2.37s-3.72-.87-4.69.25A3.81,3.81,0,0,0,66,10.2a4.8,4.8,0,0,0-2,6.59c1.47,3.06,6.56,5,11.53,2.44,1.47-.78,4.44-3.53,1.72-8.09.31-.44,2.78.31,3.91-2.34s-1.28-3.72-2.62-3.56c-1,.09-1.59.69-1.25,1.59a1,1,0,0,0,1.66.25c.34-.37.06-1.16.06-1.16.53,0,1.62.75,1.44,1.75s-.62,1.72-3.06,1.72-4.19-.56-5.5,1.09a2.92,2.92,0,0,0,.56,4.31c1.16.75,2.56.44,2.56-.81s-1.41-1.22-1.84-.91,0,.84-.28,1-1-.66-.75-1.78a2,2,0,0,1,2.22-1.78c1.31,0,3.31,1.78,3.09,3.53s-1.72,4.34-5.75,4.66-7.06-2.37-6.91-4.87,1.22-3.06,1.56-3.09.38.66,1.38.66,1.22-.94.75-1.37a2.12,2.12,0,0,0-1.87-.12C66,8.73,65.66,7,67.22,6S70.09,6.55,69.41,7.64Z"/></svg>